<?xml version="1.0" encoding="utf-8"?>
<!-- Generator: Adobe Illustrator 16.0.0, SVG Export Plug-In . SVG Version: 6.00 Build 0)  -->
<!DOCTYPE svg PUBLIC "-//W3C//DTD SVG 1.1//EN" "http://www.w3.org/Graphics/SVG/1.1/DTD/svg11.dtd">
<svg version="1.1" id="Layer_1" xmlns="http://www.w3.org/2000/svg" xmlns:xlink="http://www.w3.org/1999/xlink" x="0px" y="0px"
	 width="640px" height="640px" viewBox="0 0 640 640" enable-background="new 0 0 640 640" xml:space="preserve">
<g>
	<g>
		<linearGradient id="SVGID_1_" gradientUnits="userSpaceOnUse" x1="320" y1="109.3711" x2="320" y2="541.0607">
			<stop  offset="0.2709" style="stop-color:#ED1C24"/>
			<stop  offset="0.7489" style="stop-color:#E91D25"/>
			<stop  offset="0.9841" style="stop-color:#DD1D27"/>
			<stop  offset="1" style="stop-color:#DC1D27"/>
		</linearGradient>
		<polygon fill="url(#SVGID_1_)" points="39.352,498.28 10.319,90.588 629.682,90.588 600.649,498.28 320,604.116 		"/>
	</g>
	<polygon fill="#ED1C24" points="633.846,36.91 6.154,36.91 0,76.91 640,76.91 	"/>
	<polyline fill="#BE1E2D" points="10.319,90.588 629.682,90.588 640,76.91 0,76.91 	"/>
	<g>
		<path fill="#FFFFFF" d="M107.427,368.979v6.457c0,31.336,13.992,46.998,41.976,46.998c6.458,0,12.075-1.075,16.862-3.228
			c4.782-2.153,8.79-4.961,12.019-8.431c3.229-3.466,5.679-7.412,7.355-11.84c1.67-4.424,2.511-9.025,2.511-13.813
			c0-13.392-3.229-23.499-9.687-30.315c-6.457-6.816-15.427-11.896-26.907-15.247l-27.984-9.688
			c-9.328-3.588-17.344-7.534-24.038-11.839c-6.699-4.305-12.26-9.266-16.683-14.888c-4.429-5.617-7.657-12.019-9.687-19.194
			c-2.035-7.175-3.049-15.304-3.049-24.396c0-11.716,1.912-22.064,5.74-31.033c3.823-8.969,9.205-16.503,16.144-22.602
			c6.935-6.099,15.304-10.763,25.114-13.992c9.805-3.229,20.686-4.844,32.648-4.844c16.503,0,29.536,2.276,39.105,6.817
			c9.563,4.546,16.8,10.225,21.705,17.042c4.899,6.816,8.073,14.115,9.507,21.885c1.436,7.775,2.153,15.012,2.153,21.706v5.74
			h-40.899v-5.382c0-11.716-2.752-20.808-8.251-27.266c-5.505-6.458-14.709-9.687-27.625-9.687c-4.305,0-8.554,0.661-12.736,1.973
			c-4.187,1.317-7.893,3.408-11.122,6.278c-3.229,2.871-5.802,6.699-7.713,11.48c-1.917,4.788-2.87,10.527-2.87,17.221
			c0,11.004,2.988,19.677,8.969,26.011c5.976,6.339,15.786,12.142,29.419,17.4l27.625,10.045
			c18.173,6.458,31.392,14.951,39.644,25.473c8.251,10.527,12.377,24.636,12.377,42.334c0,13.633-1.973,25.293-5.919,34.98
			c-3.947,9.686-9.631,17.702-17.042,24.036c-7.417,6.341-16.324,10.943-26.729,13.813c-10.404,2.869-22.063,4.305-34.979,4.305
			c-15.786,0-28.763-2.393-38.926-7.175c-10.168-4.781-18.118-10.943-23.858-18.478c-5.74-7.533-9.687-15.903-11.84-25.113
			c-2.152-9.204-3.229-18.353-3.229-27.445v-6.099H107.427z"/>
		<path fill="#FFFFFF" d="M281.786,192.107v183.689c0,16.503,3.168,28.403,9.508,35.697c6.334,7.298,15.724,10.941,28.163,10.941
			c12.198,0,21.465-3.644,27.805-10.941c6.335-7.294,9.507-19.194,9.507-35.697V192.107h40.899v180.46
			c0,14.831-1.794,27.39-5.381,37.67c-3.588,10.286-8.733,18.6-15.427,24.934c-6.699,6.341-14.89,10.943-24.575,13.813
			c-9.688,2.869-20.63,4.305-32.828,4.305c-12.198,0-23.202-1.436-33.007-4.305c-9.81-2.87-18.062-7.473-24.754-13.813
			c-6.699-6.334-11.839-14.647-15.427-24.934c-3.588-10.28-5.382-22.839-5.382-37.67v-180.46H281.786z"/>
		<path fill="#FFFFFF" d="M450.402,368.979v6.457c0,31.336,13.993,46.998,41.977,46.998c6.458,0,12.075-1.075,16.862-3.228
			c4.781-2.153,8.79-4.961,12.019-8.431c3.229-3.466,5.679-7.412,7.355-11.84c1.669-4.424,2.511-9.025,2.511-13.813
			c0-13.392-3.229-23.499-9.687-30.315c-6.458-6.816-15.428-11.896-26.908-15.247l-27.983-9.688
			c-9.328-3.588-17.344-7.534-24.038-11.839c-6.698-4.305-12.26-9.266-16.683-14.888c-4.428-5.617-7.657-12.019-9.687-19.194
			c-2.035-7.175-3.05-15.304-3.05-24.396c0-11.716,1.912-22.064,5.74-31.033c3.823-8.969,9.205-16.503,16.145-22.602
			c6.935-6.099,15.304-10.763,25.114-13.992c9.804-3.229,20.686-4.844,32.647-4.844c16.504,0,29.537,2.276,39.105,6.817
			c9.563,4.546,16.801,10.225,21.706,17.042c4.899,6.816,8.072,14.115,9.507,21.885c1.436,7.775,2.152,15.012,2.152,21.706v5.74
			h-40.899v-5.382c0-11.716-2.752-20.808-8.251-27.266c-5.505-6.458-14.709-9.687-27.625-9.687c-4.305,0-8.555,0.661-12.736,1.973
			c-4.188,1.317-7.893,3.408-11.122,6.278c-3.229,2.871-5.802,6.699-7.713,11.48c-1.917,4.788-2.871,10.527-2.871,17.221
			c0,11.004,2.988,19.677,8.97,26.011c5.976,6.339,15.786,12.142,29.419,17.4l27.625,10.045
			c18.174,6.458,31.393,14.951,39.644,25.473c8.252,10.527,12.378,24.636,12.378,42.334c0,13.633-1.974,25.293-5.92,34.98
			c-3.946,9.686-9.63,17.702-17.041,24.036c-7.417,6.341-16.324,10.943-26.729,13.813c-10.404,2.869-22.064,4.305-34.98,4.305
			c-15.785,0-28.763-2.393-38.926-7.175c-10.168-4.781-18.117-10.943-23.857-18.478c-5.741-7.533-9.688-15.903-11.84-25.113
			c-2.152-9.204-3.229-18.353-3.229-27.445v-6.099H450.402z"/>
	</g>
</g>
<g>
</g>
<g>
</g>
<g>
</g>
<g>
</g>
<g>
</g>
<g>
</g>
</svg>
